<?xml version="1.0" encoding="UTF-8" standalone="no"?>
<!-- Created with Inkscape (http://www.inkscape.org/) -->

<svg
   version="1.1"
   id="svg1"
   width="1536"
   height="1024"
   viewBox="0 0 1536 1024"
   sodipodi:docname="tecnologia.svg"
   inkscape:version="1.4.2 (f4327f4, 2025-05-13)"
   xmlns:inkscape="http://www.inkscape.org/namespaces/inkscape"
   xmlns:sodipodi="http://sodipodi.sourceforge.net/DTD/sodipodi-0.dtd"
   xmlns:xlink="http://www.w3.org/1999/xlink"
   xmlns="http://www.w3.org/2000/svg"
   xmlns:svg="http://www.w3.org/2000/svg">
  <defs
     id="defs1">
    <linearGradient
       id="swatch4"
       inkscape:swatch="solid">
      <stop
         style="stop-color:#000000;stop-opacity:1;"
         offset="0"
         id="stop4" />
    </linearGradient>
    <linearGradient
       id="swatch3"
       inkscape:swatch="solid">
      <stop
         style="stop-color:#233152;stop-opacity:1;"
         offset="0"
         id="stop3" />
    </linearGradient>
    <linearGradient
       id="swatch2"
       inkscape:swatch="solid">
      <stop
         style="stop-color:#000000;stop-opacity:1;"
         offset="0"
         id="stop2" />
    </linearGradient>
    <linearGradient
       id="swatch1"
       inkscape:swatch="solid">
      <stop
         style="stop-color:#233152;stop-opacity:1;"
         offset="0"
         id="stop1" />
    </linearGradient>
    <linearGradient
       inkscape:collect="always"
       xlink:href="#swatch3"
       id="linearGradient4"
       x1="114.24821"
       y1="500.00766"
       x2="1428.7605"
       y2="500.00766"
       gradientUnits="userSpaceOnUse" />
    <linearGradient
       inkscape:collect="always"
       xlink:href="#swatch3"
       id="linearGradient5"
       x1="114.24821"
       y1="500.00766"
       x2="1428.7605"
       y2="500.00766"
       gradientUnits="userSpaceOnUse" />
  </defs>
  <sodipodi:namedview
     id="namedview1"
     pagecolor="#ffffff"
     bordercolor="#000000"
     borderopacity="0.25"
     inkscape:showpageshadow="2"
     inkscape:pageopacity="0.0"
     inkscape:pagecheckerboard="0"
     inkscape:deskcolor="#d1d1d1"
     inkscape:zoom="0.75488281"
     inkscape:cx="537.83183"
     inkscape:cy="509.35058"
     inkscape:window-width="1920"
     inkscape:window-height="991"
     inkscape:window-x="-9"
     inkscape:window-y="-9"
     inkscape:window-maximized="1"
     inkscape:current-layer="g1" />
  <g
     inkscape:groupmode="layer"
     inkscape:label="Image"
     id="g1"
     style="display:inline">
    <path
       style="display:inline;fill:url(#linearGradient4);stroke:url(#linearGradient5)"
       d="m 114.46805,928.89934 c -0.3667,-1.15537 -0.26394,-2.50345 0.22835,-2.99574 0.51336,-0.51336 49.70673,-1.00352 115.34934,-1.14934 L 344.5,924.5 344.76843,901.25 345.03686,878 h -78.95941 c -52.01913,0 -79.17214,-0.34419 -79.58288,-1.00878 -0.75226,-1.21718 -0.65719,-345.91909 0.0957,-347.13736 C 186.88056,529.38424 261.3556,529 352.0904,529 c 131.09415,0 165.05596,0.2567 165.3794,1.25 0.84372,2.59112 1.28832,343.256 0.45085,345.4587 L 517.0495,878 h -83.04318 -83.04318 l 0.26843,23.25 L 351.5,924.5 H 461 570.5 l 0.22668,-313.93005 c 0.12468,-172.66152 0.34968,-314.25715 0.5,-314.65695 10.40814,-5.57608 71.39736,-35.02701 78.70699,-39.0168 5.3461,-2.91805 53.46808,-31.16553 70.20031,-40.81878 34.17627,-19.71718 58.4944,-38.41867 91.36602,-63.94457 26.72417,-20.75221 46.27884,-39.36533 70.79144,-67.38285 7.57885,-8.6625 14.10121,-15.743109 14.49414,-15.734687 3.33908,0.07157 3.32619,-0.386389 3.24348,115.175487 l -0.0812,113.50461 23.27608,13.05569 c 47.84584,26.83702 71.73354,40.13412 87.52606,48.72145 l 16.25,8.83608 v 278.35124 278.35124 l 86.04,-0.25556 86.0401,-0.25555 v -23 -23 l -76.9227,-0.25614 c -63.1215,-0.21019 -77.1237,-0.49835 -78.0431,-1.60614 -0.8193,-0.98717 -1.0524,-44.59089 -0.8673,-162.24385 L 1043.5,553.5 h 159 159 l 0.2737,160 c 0.1506,88 0.03,161.0125 -0.269,162.25 l -0.5428,2.25 H 1283.4809 1206 v 22.89301 c 0,19.95294 0.2031,22.97097 1.5818,23.5 0.87,0.33385 50.7896,0.60699 110.9326,0.60699 108.3087,0 109.3568,0.019 109.9828,1.99105 0.3475,1.09508 0.3513,2.44508 0.01,3 C 1428.0872,930.66799 1211.8931,931 771.50837,931 H 115.13478 Z m 494.29009,-4.7287 c 0.99224,-0.62993 1.20358,-13.14824 1,-59.23469 L 609.5,806.5 602,805.94746 c -8.92639,-0.65763 -12.63492,-2.27328 -15.71267,-6.84534 -2.27217,-3.37536 -2.28731,-3.62398 -2.28359,-37.5 0.004,-32.44069 0.10206,-34.26339 2.02189,-37.4123 C 588.0429,720.88111 593.13607,718 596.96788,718 598.99458,718 599,717.77589 599,634 v -84 h -2.09887 c -4.0305,0 -8.95995,-3.19496 -10.95101,-7.09777 C 584.11955,539.31401 584,536.78743 584,501.68772 c 0,-51.31461 -3.07213,-47.68383 40.34887,-47.68617 32.18221,-0.002 33.80997,0.28333 37.717,6.60503 2.04025,3.30119 2.09469,4.44957 1.99794,42.14354 -0.0915,35.65599 -0.24343,38.94949 -1.90272,41.24988 -2.77991,3.85401 -7.92766,5.99669 -14.41109,5.99845 L 642,550 v 22.5 22.5 l 14.75,-0.004 c 12.94012,-0.003 15.14879,-0.24688 18,-1.9853 2.13759,-1.30331 3.24577,-2.75672 3.23763,-4.24626 -0.007,-1.24559 0.10569,-53.3397 0.25,-115.7647 0.28858,-124.83854 -0.16359,-116.0086 6.24744,-122 l 2.67509,-2.5 61.41992,-0.27236 L 810,347.95527 v -48.00902 c 0,-40.20799 0.22729,-48.09624 1.39877,-48.54578 1.58737,-0.60913 7.6427,2.29607 22.10123,10.6036 5.5,3.16017 14.05,7.82755 19,10.37197 4.95,2.54441 11.25,5.88659 14,7.42705 2.75,1.54047 9.8375,5.39993 15.75,8.57659 l 10.75,5.77573 0.0978,-3.3277 c 0.0538,-1.83024 0.16628,-49.14158 0.25,-105.13632 L 893.5,83.882781 890,87.733561 c -1.925,2.117929 -6.85695,7.656803 -10.95989,12.308609 -21.95218,24.88881 -54.38099,53.18122 -89.54011,78.11896 -70.1859,49.78162 -174.65642,103.26271 -204.18704,117.48627 -6.23867,3.00488 -8.25429,5.24146 -8.79227,8.3526 -0.77897,4.5047 0.21556,618.76422 1.00388,620.03976 0.71582,1.15821 29.42585,1.27852 31.23357,0.13088 z M 643.75793,865.25 644.01586,806 h -13.87872 -13.87872 l -0.62768,6.75 c -0.76454,8.22171 -0.71364,108.8704 0.0561,110.87623 0.4455,1.16094 3.10301,1.37668 14.18071,1.15122 L 643.5,924.5 Z m 34.31163,1.25 c 0.10133,-31.9 0.12714,-58.5625 0.0573,-59.25 -0.0948,-0.93383 -3.63569,-1.25 -13.99909,-1.25 h -13.87219 l -0.64353,4.02438 c -0.84824,5.30461 -0.741,113.51337 0.11334,114.36772 0.36326,0.36325 6.84783,0.53613 14.41017,0.38418 L 677.8853,924.5 Z m 34.68837,-1.25 0.25793,-59.25 H 699.00793 685 v 58.92668 c 0,55.27418 0.10847,58.95593 1.75,59.39864 0.9625,0.25958 7.15,0.40508 13.75,0.32332 l 12,-0.14864 z m 35,0 0.25793,-59.25 H 733.50793 719 v 58.83333 c 0,32.35834 0.31213,59.14547 0.69363,59.52696 0.38149,0.3815 6.79399,0.569 14.25,0.41667 L 747.5,924.5 Z m 60.69238,58.5 c 0.21315,-0.6875 0.63654,-120.78743 0.94087,-266.88873 l 0.55331,-265.63873 -2.22224,-0.37037 c -1.22224,-0.2037 -19.42422,-0.36628 -40.44886,-0.36127 l -38.2266,0.009 -2.4084,2.5 -2.40839,2.5 -0.57261,116.75953 c -0.62832,128.12105 -0.27037,121.20682 -6.49354,125.43191 -2.41089,1.63682 -6.08241,1.85604 -38.66385,2.30856 l -36,0.5 -0.26174,38.75 -0.26175,38.75 h 55.50939 c 86.12987,0 84.4849,-0.10969 90.01646,6.00261 1.91709,2.11836 1.99764,3.62453 1.99764,37.35238 V 796.5 l -2.81004,3.6731 C 782.90487,805.12073 779.76028,806 765.85078,806 H 754 v 58.83333 c 0,32.35834 0.3,59.13334 0.66667,59.5 C 755.03333,924.7 767.19746,925 781.69805,925 c 20.21842,0 26.45507,-0.29141 26.75226,-1.25 z M 918,851.05226 v -73.94774 l -22.92943,-0.30226 c -25.18673,-0.33202 -25.43477,-0.39045 -30.50878,-7.18795 -2.04672,-2.74193 -2.06179,-3.42108 -2.06179,-92.93821 0,-89.16577 0.023,-90.21528 2.05407,-93.6727 1.12973,-1.92313 3.58301,-4.52696 5.45173,-5.78629 l 3.39766,-2.28969 47.54827,0.28629 c 47.40653,0.28544 47.55762,0.29296 50.68453,2.52339 6.61553,4.71888 6.36374,0.75687 6.36374,100.13525 v 89.83188 l -2.28463,3.39789 c -3.47071,5.16193 -6.63157,5.77797 -29.97182,5.84144 L 924.9871,777 l 0.25645,73.75 0.25645,73.75 43.5,0.30222 c 23.925,0.16623 45.3,0.043 47.5,-0.27388 l 4,-0.57612 -0.2049,-233.22611 C 1020.1823,562.45175 1020.0698,438.2625 1020.0451,414.75 1020.0203,391.2375 1019.6223,372 1019.1606,372 1018.0644,372 969.31609,344.86821 933,324.04565 917.01057,314.87778 902.31112,307 901.1939,307 c -0.94038,0 -1.15823,8.59857 -0.95593,37.72914 l 0.26203,37.72913 27,11.17383 c 14.85,6.14561 30.15,12.54419 34,14.21907 3.85,1.67489 12.4,5.2766 19,8.00381 22.9062,9.46518 27.5,11.8297 27.5,14.15485 0,3.31793 -4.8868,8.90919 -10.60944,12.13885 -5.00695,2.82574 -5.24329,3.15162 -5.90887,8.1474 -1.10715,8.31011 -4.19239,14.2861 -10.08869,19.54138 -7.02176,6.2584 -13.48836,8.56868 -22.22171,7.93902 -5.67363,-0.40906 -9.61943,-1.79744 -26.38526,-9.28401 l -19.71397,-8.80302 -1.78603,2.17218 c -0.98232,1.1947 -3.9836,2.99955 -6.66951,4.01076 l -4.88348,1.83857 -0.24136,12.13604 c -0.22741,11.43432 -0.39614,12.33896 -2.91821,15.64557 -5.0455,6.61498 -6.19028,6.84182 -33.82347,6.70208 L 838,502.06949 v 7.40624 c 0,4.55245 -0.4483,7.6833 -1.16345,8.12529 -0.6399,0.39547 -5.53303,0.92946 -10.87363,1.18663 l -9.71018,0.46757 -0.59254,7.12239 c -0.84596,10.16862 -0.87359,397.07567 -0.0284,397.92085 C 816.01764,924.68431 839.20833,925 867.16667,925 H 918 Z M 512.3936,859.25 c 0.63771,-12.03495 0.52203,-186.71423 -0.18609,-281 L 511.88269,535 H 352.04833 c -134.0274,0 -159.91882,0.22011 -160.35749,1.36326 -0.79922,2.08276 -0.85525,334.139 -0.0565,334.93774 0.38445,0.38445 72.56055,0.699 160.39134,0.699 H 511.718 Z M 240.03518,846.06574 C 238.50681,843.20995 238.65471,804.74529 240.2,803.2 c 0.75929,-0.75929 4.57622,-1.2 10.39301,-1.2 7.19022,0 9.31663,-0.32215 9.76044,-1.4787 0.31209,-0.81328 0.31457,-9.08351 0.006,-18.37827 -0.37768,-11.3591 -0.21605,-17.11333 0.49303,-17.55156 0.58022,-0.35859 19.2561,-0.63531 41.50197,-0.61493 22.24587,0.0204 41.16681,-0.23915 42.04653,-0.57673 1.35583,-0.52028 1.5995,-2.65412 1.5995,-14.0068 V 736 h -45.8 c -34.28889,0 -46.1016,-0.3016 -47,-1.2 -0.91276,-0.91276 -1.2,-19.8144 -1.2,-78.96482 0,-74.51389 0.077,-77.80602 1.84174,-78.75048 1.17486,-0.62877 37.40227,-0.97828 100.05134,-0.96525 l 98.2096,0.0204 0.93685,2.46409 c 0.55223,1.45248 0.94126,33.62234 0.9476,78.35969 0.01,67.65038 -0.15984,76.0662 -1.55961,77.46598 C 451.04271,735.81443 445.01623,736 401.42857,736 H 352 l -0.1053,3.25 c -0.0579,1.7875 -0.2548,7.74082 -0.43752,13.22959 -0.23086,6.93448 0.0301,10.21 0.8553,10.73469 0.65313,0.4153 21.32502,0.76199 45.93752,0.77041 L 443,764 v 19 19 h 10.3 c 6.67778,0 10.72201,0.42201 11.5,1.2 1.2676,1.2676 1.80006,40.0727 0.59301,43.21821 -0.53144,1.38492 -3.76738,1.58179 -26,1.58179 H 414 v -22.39301 c 0,-19.49701 0.20457,-22.47151 1.58179,-23 0.86998,-0.33385 6.04498,-0.60699 11.5,-0.60699 H 437 V 785.49438 768.98877 L 351.75,769.24438 266.5,769.5 v 16 16 l 12.5,0.5 12.5,0.5 0.27,21.92862 c 0.20778,16.87562 -0.0226,22.11437 -1,22.73469 -0.6985,0.44334 -12.16667,0.81296 -25.48482,0.82138 -22.92547,0.0145 -24.26993,-0.0877 -25.25,-1.91895 z M 280.75,842.40596 286,841.76955 V 824.9512 808.13284 l -2.75,-0.31642 c -1.5125,-0.17403 -10.7375,-0.18429 -20.5,-0.0228 L 245,808.08725 v 16.78971 c 0,9.23434 0.18902,16.97721 0.42004,17.20637 0.72845,0.7226 29.83752,0.98842 35.32996,0.32263 z m 175.5,0.0174 3.75,-0.5992 V 824.9121 808 h -20 -20 v 16.94521 16.94521 l 4.75,0.30479 c 10.39518,0.66702 27.9574,0.79425 31.5,0.22819 z M 448,707 v -23 h -95 -95 v 22.33333 c 0,12.28334 0.3,22.63334 0.66667,23 0.36666,0.36667 43.11666,0.66667 95,0.66667 H 448 Z m -65.25,1.9199 c -2.7055,-1.57581 -2.2217,-5.74786 0.82766,-7.13724 3.13829,-1.4299 5.76862,-0.11476 6.2491,3.12451 0.62297,4.19977 -3.11581,6.31977 -7.07676,4.01273 z m 19.63478,0.31479 C 398.83556,706.89652 400.70821,701 405,701 c 1.98538,0 5,2.4944 5,4.13717 0,3.76299 -4.47114,6.16878 -7.61522,4.09752 z m 18.98082,-1.79946 c -1.60361,-2.44742 -1.58277,-2.6625 0.45536,-4.70064 1.76604,-1.76604 2.61576,-1.96777 4.90745,-1.1651 1.74379,0.61077 2.89277,1.81808 3.09835,3.25568 0.74666,5.22105 -5.48984,7.14486 -8.46116,2.61006 z m -145.68568,-0.0886 c -1.49785,-1.49786 -0.58157,-4.33247 1.57008,-4.85719 1.2375,-0.30179 16.425,-0.42287 33.75,-0.26906 L 342.5,702.5 v 2.5 2.5 l -33.07008,0.26326 c -18.18854,0.14479 -33.37604,-0.0427 -33.75,-0.41667 z M 448,655.01813 V 632 h -95 -95 v 22.33333 c 0,12.28334 0.28309,22.61643 0.6291,22.96244 0.346,0.346 43.096,0.65416 95,0.6848 L 448,678.03626 Z m -64.20422,3.78331 c -3.49674,-1.21236 -4.51495,-4.34929 -2.23093,-6.8731 3.19889,-3.53473 8.43515,-1.91039 8.43515,2.61667 0,3.34798 -2.96246,5.38039 -6.20422,4.25643 z M 422,658 c -2.657,-2.657 -2.52261,-4.61146 0.45104,-6.55988 5.20901,-3.41307 10.39821,2.83428 5.58893,6.7286 C 425.18165,660.48325 424.46318,660.46318 422,658 Z m -21.02022,-1.03777 c -2.54951,-4.76382 3.04306,-9.06151 7.06051,-5.42576 3.63951,3.29371 1.84884,7.46353 -3.20511,7.46353 -1.75844,0 -3.16178,-0.74173 -3.8554,-2.03777 z m -124.43256,-0.30405 c -1.14945,-0.84049 -1.62855,-2.00384 -1.24108,-3.01357 0.56462,-1.47138 3.82073,-1.66039 30.91248,-1.79438 16.65476,-0.0824 31.56543,-0.12582 33.13483,-0.0965 3.78519,0.0706 5.45385,1.74272 4.0155,4.02384 -0.98492,1.56201 -4.06097,1.74704 -33.01783,1.98606 -25.76511,0.21267 -32.29328,-8e-4 -33.8039,-1.1054 z M 447.76989,604.25 448.03978,583 H 353.01989 258 v 20.83333 c 0,11.45834 0.30228,21.13562 0.67174,21.50508 0.36946,0.36945 43.00696,0.55695 94.75,0.41666 L 447.5,625.5 Z m -25.08029,3.59617 c -2.71228,-1.51787 -2.19585,-6.65839 0.80634,-8.02627 2.06233,-0.93966 2.84409,-0.82215 4.5,0.67642 1.10223,0.99751 2.00406,2.58881 2.00406,3.53622 0,3.02558 -4.51231,5.37952 -7.3104,3.81363 z M 276.25,607.33772 c -1.94435,-0.78456 -1.47049,-4.32043 0.68614,-5.11994 1.06488,-0.39478 16.32138,-0.59318 33.90333,-0.44089 26.76305,0.23181 32.05741,0.51199 32.52137,1.72106 0.3048,0.79429 -0.13384,2.13219 -0.97476,2.97311 -1.31104,1.31104 -6.04363,1.51769 -33.20751,1.44999 -17.42321,-0.0434 -32.24107,-0.30592 -32.92857,-0.58333 z m 105.32143,-0.90915 C 379.51297,604.37011 379.58866,603.41134 382,601 c 2.26853,-2.26853 3.31787,-2.43543 6.06574,-0.96482 2.16212,1.15713 2.57138,4.9277 0.73426,6.76482 -1.68275,1.68275 -5.36352,1.49362 -7.22857,-0.37143 z M 401.2,606.8 c -1.73253,-1.73253 -1.47595,-4.2403 0.62874,-6.14501 2.37688,-2.15105 4.46269,-2.09544 6.51627,0.17375 C 411.46372,604.27487 409.72615,608 405,608 c -1.43,0 -3.14,-0.54 -3.8,-1.2 z M 1355.7531,715.75 1355.5,559.5 h -153 -153 l -0.2531,156.25 -0.2531,156.25 H 1202.5 1356.0062 Z m -255.1769,136.00621 c -5.505,-1.45502 -11.9833,-8.34467 -13.4963,-14.35321 -1.4396,-5.71725 -0.7656,-9.32466 3.0152,-16.13785 2.8005,-5.04681 2.9049,-5.71499 2.9049,-18.60078 0,-13.99662 0.9872,-19.05197 4.0394,-20.68548 1.006,-0.53839 5.6582,-0.97889 10.3382,-0.97889 11.6851,0 11.6224,-0.10801 11.6224,20.02823 0,15.06937 0.083,15.69542 2.5106,18.98615 8.6234,11.68831 3.7885,28.30889 -9.2917,31.94161 -4.4012,1.22236 -6.3913,1.18821 -11.6427,-0.19978 z m 15.5414,-9.63856 c 3.3609,-3.36087 3.8824,-4.48754 3.8824,-8.38779 0,-3.51324 -0.7708,-5.62595 -3.5,-9.59354 l -3.5,-5.08811 v -15.92759 -15.92759 l -5.0625,-0.34652 c -9.2297,-0.63174 -8.9318,-1.20821 -8.9781,17.37127 l -0.041,16.28222 -2.9593,3.46223 c -2.434,2.84755 -2.9594,4.36149 -2.9594,8.52749 0,8.37531 5.4511,13.49969 14.3676,13.50654 4.3234,0.003 5.3018,-0.43041 8.75,-3.87861 z m -14.0038,-4.19464 c -4.0507,-2.46338 -4.5887,-7.0737 -1.158,-9.92301 1.5222,-1.26424 1.8907,-3.62182 2.3447,-15 0.5598,-14.02982 1.169,-17.34269 3.0727,-16.71009 0.7533,0.2503 1.2184,5.41381 1.403,15.57565 0.2741,15.08387 0.2953,15.20992 2.75,16.32834 4.3934,2.00177 2.8664,8.77637 -2.3913,10.60923 -2.332,0.81295 -3.5234,0.6388 -6.0211,-0.88012 z m 202.3115,12.99444 c -2.5994,-2.87232 -8.397,-5.15081 -11.5384,-4.5347 -1.9687,0.3861 -3.2067,-0.15278 -5.0202,-2.18513 -4.6015,-5.15691 -6.5706,-8.7368 -7.2632,-13.20417 -0.7773,-5.0147 -2.0352,-7.0977 -5.3535,-8.86529 -1.6796,-0.8947 -2.25,-2.09006 -2.25,-4.71536 0,-2.97631 0.4428,-3.67121 2.8812,-4.52124 2.3543,-0.82071 3.0013,-1.75499 3.5375,-5.10869 0.3869,-2.41904 1.8728,-5.48972 3.6188,-7.47838 1.6294,-1.85575 2.9625,-4.42832 2.9625,-5.71684 0,-3.34669 2.307,-4.89877 6.0572,-4.07508 2.6808,0.5888 3.64,0.20403 6.5694,-2.63524 2.9376,-2.84727 4.2083,-3.35442 8.8487,-3.5316 5.1307,-0.1959 5.4878,-0.0491 6.7216,2.76288 1.6568,3.77578 6.9199,5.2299 12.4036,3.42693 1.7243,-0.56691 2.7542,0.21927 5.75,4.38924 3.9409,5.48546 4.3302,6.67572 2.3995,7.33611 -2.0529,0.7022 2.6577,9.34724 5.9485,10.91682 4.1007,1.95586 4.4177,6.86521 0.6037,9.34792 -4.1248,2.68504 -5.235,4.5374 -5.2704,8.79419 -0.022,2.58179 -1.0164,5.25083 -3.0695,8.23501 -3.369,4.89665 -5.9712,6.6821 -9.2669,6.35828 -3.1444,-0.30895 -7.6954,1.77686 -7.6954,3.52696 0,3.72537 -8.5524,4.81699 -11.5747,1.47738 z m 10.9317,-9.91589 c 7.1872,-3.50811 10.23,-5.90291 11.6271,-9.15091 0.5561,-1.29286 1.41,-3.02565 1.8976,-3.85065 4.1268,-6.98278 3.9168,-11.16107 -1.0377,-20.64174 -2.8807,-5.51239 -3.7632,-6.37122 -8.6124,-8.38112 -2.9716,-1.23165 -6.512,-3.34846 -7.8676,-4.70403 -2.7513,-2.75136 -5.539,-2.5905 -9.1336,0.52702 -1.1761,1.02003 -3.8491,2.62604 -5.94,3.56892 -2.0909,0.94288 -4.6992,3.11225 -5.7961,4.82083 -7.1229,11.0951 -7.9755,15.84334 -4.0061,22.31012 1.3504,2.2 3.352,5.9125 4.448,8.25 1.096,2.3375 2.6118,4.25 3.3685,4.25 0.7567,0 3.8102,1.34185 6.7855,2.98188 2.9754,1.64004 6.0205,2.99004 6.7668,3 0.7464,0.01 4.1214,-1.33118 7.5,-2.98032 z m -14.4714,-10.00007 c -13.2607,-7.00797 -5.9468,-28.445 9.0578,-26.54839 13.0777,1.65305 16.6326,19.92065 5.1342,26.38312 -4.7009,2.64204 -9.4018,2.69678 -14.192,0.16527 z m 12.3746,-6.54196 c 5.3619,-4.97183 2.2215,-13.45953 -4.98,-13.45953 -6.2631,0 -10.6647,7.62885 -7.0302,12.18455 3.4495,4.32381 8.1806,4.82604 12.0102,1.27498 z m -147.3199,-17.67731 c -2.7123,-1.00337 -2.4187,-3.60711 0.5597,-4.96417 l 2.5,-1.13908 0.015,-67.08949 c 0.01,-36.89921 0.4022,-67.70002 0.875,-68.44623 0.6992,-1.10343 7.3711,-1.33645 35.7347,-1.24803 19.1812,0.0598 35.8875,0.10782 37.125,0.10674 L 1245,664 v 68.43358 68.43358 l 2.6491,0.31642 c 3.1877,0.38074 5.3505,3.21678 3.7068,4.86049 -1.2545,1.2545 -82.1306,1.95343 -85.4156,0.73815 z M 1191.2233,786.25 1191.5,771.5 h 15 15 l 0.2767,14.75 0.2768,14.75 h 8.4732 H 1239 V 735.5 670 h -32 -32 v 64.83333 c 0,35.65834 0.3,65.13334 0.6667,65.5 0.3666,0.36667 3.9546,0.66667 7.9732,0.66667 h 7.3066 z m -7.7833,-26.54584 c -0.2895,-0.75424 -0.3944,-5.15872 -0.2331,-9.78775 L 1183.5,741.5 h 9.5 9.5 v 9.5 9.5 l -9.2669,0.28775 c -7.1305,0.22141 -9.3882,-0.0284 -9.7931,-1.08359 z M 1197,751 v -4 h -4 -4 v 4 4 h 4 4 z m 13.0153,1.28498 c 0.01,-4.83174 0.3835,-9.36536 0.8336,-10.07471 0.596,-0.93947 3.3755,-1.21104 10.2347,-1 L 1230.5,741.5 v 9.5 9.5 l -10.25,0.28498 -10.25,0.28499 z M 1224.8075,751.25 1225.115,747 H 1220.5575 1216 v 3.83333 c 0,4.77827 0.5569,5.33521 4.9643,4.96426 3.39,-0.28533 3.5484,-0.47271 3.8432,-4.54759 z m -12.0329,-19.29508 c -2.1673,-0.51938 -2.2746,-0.99106 -2.2746,-10 V 712.5 h 10 10 v 9.5 9.5 l -7.7254,0.5 c -4.249,0.275 -8.749,0.25471 -10,-0.0451 z M 1224,722.5 V 718 h -4 -4 v 4.5 4.5 h 4 4 z m -40.56,8.20416 c -0.2895,-0.75424 -0.3944,-5.15872 -0.2331,-9.78775 L 1183.5,712.5 l 9.7867,-0.28665 9.7866,-0.28666 -0.2866,9.78666 -0.2867,9.78665 -9.2669,0.28775 c -7.1305,0.22141 -9.3882,-0.0284 -9.7931,-1.08359 z M 1197,722.5 V 718 h -4 c -3.971,0 -4,0.0278 -4,3.83333 0,4.6807 0.4389,5.16667 4.6667,5.16667 3.2839,0 3.3333,-0.0667 3.3333,-4.5 z m -9.7867,-19.234 -4.2868,-0.38459 0.2868,-9.1907 L 1183.5,684.5 h 9.5 9.5 l 0.2913,8.91543 c 0.2111,6.45794 -0.065,9.14125 -1,9.73469 -1.2821,0.8134 -6.3539,0.85371 -14.578,0.11588 z M 1197,694 c 0,-3.98125 -0.018,-4 -3.8906,-4 -3.7083,0 -3.9099,0.16541 -4.3028,3.53057 -0.2267,1.94181 -0.2009,3.74181 0.057,4 0.2582,0.25818 2.1944,0.46943 4.3028,0.46943 3.8055,0 3.8333,-0.029 3.8333,-4 z m 13.4086,8.6225 c -0.2722,-0.70932 -0.363,-5.07706 -0.2017,-9.70609 L 1210.5,684.5 h 10 10 v 9.5 9.5 l -9.7982,0.20609 c -7.2305,0.15208 -9.928,-0.13189 -10.2932,-1.08359 z m 13.8596,-5.87893 c 0.2651,-0.69103 0.4258,-2.37853 0.3569,-3.75 -0.1101,-2.19498 -0.634,-2.53039 -4.3751,-2.80107 L 1216,689.885 v 4.0575 c 0,4.0485 0.01,4.0575 3.893,4.0575 2.2026,0 4.1024,-0.54558 4.3752,-1.25643 z M 1216,789 v -12 h -9.5 -9.5 v 12 12 h 9.5 9.5 z m -111.5817,-18.09032 c -1.8564,-2.05122 -1.8557,-2.11668 0.036,-3.5 1.0603,-0.77532 2.3064,-1.40968 2.769,-1.40968 1.4468,0 2.6251,4.40215 1.539,5.75 -1.3909,1.72601 -2.1555,1.5781 -4.3441,-0.84032 z m 199.5136,-0.0368 c -0.8879,-1.65919 -0.8407,-2.31583 0.2149,-2.98469 2.2855,-1.4483 4.5946,-0.98497 5.1209,1.02753 1.0219,3.90775 -3.4199,5.537 -5.3358,1.95716 z M 1104.2468,758.8468 c -1.5648,-1.56481 0.2404,-4.8468 2.6659,-4.8468 2.4217,0 4.2828,2.32707 3.4976,4.37325 -0.7208,1.87831 -4.4706,2.16642 -6.1635,0.47355 z m 14.1148,-0.3468 c -0.7922,-2.06442 0.2819,-4.5 1.9846,-4.5 2.0018,0 3.9839,2.6975 3.2971,4.48727 -0.7497,1.95367 -4.5334,1.9628 -5.2817,0.0127 z m 13.0269,0.0701 c -0.9956,-2.59467 0.3999,-4.73919 2.857,-4.39028 1.6528,0.23469 2.2545,0.98741 2.2545,2.82014 0,1.83273 -0.6017,2.58545 -2.2545,2.82014 -1.3523,0.19202 -2.4956,-0.3082 -2.857,-1.25 z m 12.0719,-0.69499 c -1.1445,-3.60606 3.658,-5.39094 5.4576,-2.02835 0.68,1.27064 0.6286,2.20659 -0.1648,3 -1.8383,1.83833 -4.5595,1.33877 -5.2928,-0.97165 z m 12.7161,-0.55163 C 1156.4353,755.0647 1157,754.5 1159,754.5 c 2,0 2.5,0.5 2.5,2.5 0,2 -0.5647,2.5647 -2.8235,2.82352 -2.5684,0.29428 -2.7943,0.0684 -2.5,-2.5 z m 95.3023,0.60977 c -0.9996,-3.14956 2.2757,-5.00885 5.3696,-3.04815 2.2278,1.41181 0.9267,4.58095 -2.0211,4.923 -2.0023,0.23233 -2.8261,-0.22889 -3.3485,-1.87485 z M 1265.2,758.8 c -1.8307,-1.8307 -1.4373,-3.58989 0.9738,-4.35516 1.4948,-0.47443 2.5666,-0.15275 3.4313,1.02981 2.4722,3.38096 -1.415,6.31541 -4.4051,3.32535 z m 12.4667,0.53333 c -1.4264,-1.42632 -0.5614,-4.23199 1.5071,-4.88849 2.7688,-0.87878 5.4101,2.14672 3.6868,4.22312 -1.1706,1.41046 -4.0766,1.78274 -5.1939,0.66537 z m 12.3317,-0.83526 c -1.1152,-1.34378 -1.0585,-1.86656 0.3563,-3.28131 2.0396,-2.03968 5.1453,-0.59577 5.1453,2.39223 0,2.43348 -3.7208,3.03478 -5.5016,0.88908 z m 13.4961,0.49298 c -1.0838,-1.75353 0.5624,-4.99105 2.5377,-4.99105 2.0639,0 4.4316,3.44061 3.455,5.02067 -0.7942,1.28505 -5.1937,1.26331 -5.9927,-0.0296 z m 0.6089,-42.41877 c -3.7038,-3.68276 -5.2009,-5.87593 -4.7727,-6.99179 1.2302,-3.20568 3.7095,-2.94713 7.532,0.78545 4.8344,4.72068 7.9181,4.75436 12.2761,0.13406 3.4489,-3.65651 6.2707,-4.48123 7.1845,-2.09982 1.2346,3.2173 -9.9445,13.63212 -14.5646,13.56893 -1.3674,-0.0187 -4.3883,-2.14844 -7.6553,-5.39683 z m -222.8566,-0.72548 c -0.7934,-0.79341 -0.8448,-1.72936 -0.1648,-3 0.7759,-1.44986 2.1629,-1.8468 6.4532,-1.8468 H 1093 v -5 c 0,-3.30943 -0.4226,-5.01515 -1.25,-5.04481 -0.6875,-0.0247 -6.0505,-0.13715 -11.9177,-0.25 -5.8672,-0.11286 -10.962,-0.49996 -11.3217,-0.86024 -0.77,-0.77123 -0.6938,-42.73954 0.08,-43.99144 0.7366,-1.19172 52.6876,-1.07847 55.8444,0.12174 l 2.565,0.97525 v 20.96573 c 0,15.02263 -0.3343,21.17232 -1.1792,21.69453 -0.6486,0.40083 -6.9486,0.93712 -14,1.19174 L 1099,701.26546 V 706.13273 711 h 5.4286 c 5.7509,0 8.9566,1.83267 7.9219,4.52894 -0.4614,1.20239 -3.248,1.47106 -15.2575,1.47106 -9.7633,0 -15.0799,-0.38692 -15.8462,-1.1532 z m 40.3296,-37.45141 c -0.2121,-8.58254 -0.7972,-16.0162 -1.3003,-16.51924 -0.5157,-0.51574 -10.9151,-0.79721 -23.8453,-0.64539 L 1073.5,661.5 l -0.2748,16.25 -0.2747,16.25 h 24.5058 24.5057 z m 181.9495,22.49319 c -1.9491,-1.71128 -3.8401,-4.29878 -4.2024,-5.75 -0.3623,-1.45122 -1.9999,-4.82159 -3.6391,-7.48971 -3.8335,-6.23976 -4.9579,-12.25517 -3.5417,-18.94783 1.4634,-6.9158 3.1917,-10.09155 7.1244,-13.09116 10.1181,-7.71746 24.944,-5.00648 32.5074,5.94409 2.4114,3.49121 2.7255,4.86811 2.7255,11.94603 0,6.54632 -0.3858,8.54513 -2.1233,11 -3.4223,4.83527 -8.345,15.1984 -7.5819,15.96144 1.7567,1.75671 -3.506,3.53856 -10.4511,3.53856 -6.7143,0 -7.5468,-0.23947 -10.8178,-3.11142 z m 14.4974,-5.17038 c 2.5033,-2.00189 10.0758,-15.55414 10.6426,-19.0465 0.7873,-4.85195 -1.4321,-11.65086 -4.8436,-14.83765 -9.3923,-8.77377 -23.5303,-4.38361 -25.8207,8.01793 -0.5437,2.94359 -0.6988,6.54359 -0.3448,8 0.8738,3.59433 8.0645,16.34851 10.0908,17.89802 2.0734,1.58552 8.2773,1.56632 10.2757,-0.0318 z M 1153.75,687.9199 c -2.6358,-1.53523 -2.1968,-4.76966 0.7478,-5.50869 3.5592,-0.89333 5.5022,0.14853 5.5022,2.95042 0,3.29971 -2.9229,4.49612 -6.25,2.55827 z m -17.668,-1.7667 c -1.2289,-2.29621 0.3731,-4.1532 3.5828,-4.1532 2.7649,0 4.7772,3.15804 3.0884,4.8468 -1.7665,1.76648 -5.566,1.37144 -6.6712,-0.6936 z m 116.2241,0.20219 c -0.3864,-1.0069 0.088,-2.17016 1.2225,-3 2.3988,-1.75404 3.9292,-1.71359 5.4714,0.14461 0.9932,1.19672 0.9932,1.80328 0,3 -1.6627,2.00343 -5.9048,1.91179 -6.6939,-0.14461 z m 15.18,-0.39907 c -0.8982,-2.83019 0.5904,-4.19036 4.1421,-3.7845 2.3091,0.26387 2.8718,0.81805 2.8718,2.82818 0,2.07532 -0.5376,2.55215 -3.1645,2.80698 -2.5108,0.24357 -3.306,-0.13874 -3.8494,-1.85066 z m -65.4519,-31.36635 c -1.1196,-2.9448 -0.5313,-5.18522 1.5735,-5.99294 2.0135,-0.77263 4.1462,3.98429 2.7668,6.17111 -1.6598,2.63129 -3.2977,2.56405 -4.3403,-0.17817 z M 1202,635.5 c 0,-4.72972 0.2651,-5.5 1.893,-5.5 2.0611,0 3.107,1.85144 3.107,5.5 0,3.64856 -1.0459,5.5 -3.107,5.5 -1.6279,0 -1.893,-0.77028 -1.893,-5.5 z m -1.7115,-11.46565 c -3.3717,-2.05581 -5.278,-6.63826 -4.4858,-10.7828 0.2365,-1.23672 1.9846,-3.61363 3.8848,-5.28202 2.9678,-2.60581 3.9735,-2.94263 7.1337,-2.38925 7.7346,1.35442 11.1992,5.74256 9.5996,12.15873 -0.6228,2.49829 -2.0205,4.4328 -4.3187,5.97736 -4.161,2.7965 -7.597,2.88898 -11.8136,0.31798 z m 8.489,-4.59105 C 1212.9108,616.54821 1211.0857,611 1206,611 c -4.8023,0 -6.6516,4.51753 -3.345,8.17126 2.0224,2.23473 3.2429,2.28896 6.1225,0.27204 z M 1184.75,604.88725 c -0.9625,-0.54265 -1.75,-1.39861 -1.75,-1.90214 0,-1.82518 6.4031,-8.1501 10.2244,-10.09958 5.6386,-2.8766 17.0999,-2.78105 22.9259,0.19113 9.1566,4.67136 11.8052,8.0555 8.4707,10.82293 -1.081,0.89712 -2.2622,0.4066 -5.4653,-2.26948 -9.0057,-7.52404 -20.4447,-6.76956 -30.1557,1.98897 -1.8991,1.71284 -2.9206,2.01766 -4.25,1.26817 z m -10.7394,-12.37452 c -0.6789,-0.81799 -0.9965,-2.10716 -0.7057,-2.86482 0.8346,-2.17513 8.675,-8.21127 14.6954,-11.31376 5.0654,-2.61034 6.3683,-2.8332 16.4997,-2.82206 10.3314,0.0114 11.3951,0.20604 17.5,3.20287 7.065,3.46812 14,8.7275 14,10.6173 0,0.65265 -0.8967,1.74667 -1.9928,2.43114 -1.7369,1.08475 -2.475,0.81648 -5.75,-2.08998 -11.9452,-10.60117 -29.7438,-11.43123 -43.8824,-2.04652 -2.8539,1.8943 -5.7358,4.10319 -6.4043,4.90864 -1.5355,1.85015 -2.4097,1.84512 -3.9599,-0.0228 z M 609.78498,789.25 610.06997,779 H 604.03498 598 v -13.48095 c 0,-15.95918 -1.35514,-14.74724 16,-14.30926 l 11.5,0.29021 -0.27628,12.88802 c -0.15196,7.08841 -0.51602,13.27591 -0.80902,13.75 -0.293,0.47409 -2.26662,0.86198 -4.38582,0.86198 -3.68011,0 -3.87977,0.16835 -4.44754,3.75 -0.68894,4.34609 -0.65516,12.95657 0.0608,15.5 0.43896,1.55936 2.01042,1.75 14.42524,1.75 H 644 V 789.55226 779.10452 L 638.75,778.80226 633.5,778.5 V 765 751.5 h 13 13 l 0.27822,13.75 0.27822,13.75 h -4.89905 -4.89906 l -0.48253,5.75 c -0.26539,3.1625 -0.42622,7.775 -0.3574,10.25 l 0.12512,4.5 13.89891,0.27933 c 7.6444,0.15363 14.26634,-0.0881 14.71543,-0.53719 0.44908,-0.44908 0.52941,-5.18728 0.1785,-10.52933 L 677.69835,779 H 672.34918 667 v -13.48095 c 0,-15.93292 -1.27743,-14.75357 15.5,-14.30992 l 11,0.29087 0.27822,13.75 0.27822,13.75 H 689.52822 685 v 10.52822 10.52822 l 13.75,-0.27822 13.75,-0.27822 0.28442,-10.19907 0.28442,-10.19907 -5.78442,-0.30093 L 701.5,778.5 701.21884,765.57827 c -0.21032,-9.66601 0.0416,-13.12655 1,-13.73468 2.10133,-1.33341 25.20108,-1.02367 26.58116,0.35641 1.50969,1.50969 1.64615,22.09784 0.16482,24.86574 -0.78617,1.46896 -2.10923,1.93426 -5.5,1.93426 H 719 V 789.5 800 H 733.5 748 V 789.5 779 h -5.5 -5.5 v -13.48095 c 0,-15.98383 -1.43267,-14.74143 16.5,-14.30865 l 12,0.2896 v 13.5 13.5 l -5.62663,0.29622 -5.62662,0.29623 0.12662,10.20377 L 754.5,799.5 l 9,0.3033 c 11.50071,0.38757 15.14795,-0.32039 18.10863,-3.51501 L 784,793.70795 v -31.74319 c 0,-29.76232 -0.11927,-31.89051 -1.91135,-34.10398 L 780.17731,725.5 698.33865,725 c -45.01126,-0.275 -86.94182,-0.275 -93.17903,0 -10.97095,0.48371 -11.4206,0.5934 -13.80272,3.36705 l -2.46233,2.86705 0.30271,30.67939 c 0.27234,27.60025 0.48421,30.95614 2.11102,33.43674 2.41015,3.67508 5.01868,4.60757 12.1917,4.35829 l 6,-0.20852 z M 620,765 v -8 h -8.5 -8.5 v 8 8 h 8.5 8.5 z m 35,0 v -8 h -8 -8 v 8 8 h 8 8 z m 33.98635,2.25 c -0.0245,-10.31843 -0.0735,-10.37391 -8.86338,-10.03978 L 672.5,757.5 l -0.29206,7.75 -0.29207,7.75 H 680.45794 689 Z M 724,765 v -8 h -8.5 -8.5 v 8 8 h 8.5 8.5 z m 36.79206,0.25 L 760.5,757.5 751.75,757.21107 743,756.92213 V 764.96107 773 h 9.04206 9.04207 z m 207.93863,3.77151 c 1.22688,-0.81317 2.50079,-2.16317 2.83091,-3 0.33012,-0.83683 0.5451,-41.27007 0.47773,-89.85165 -0.0925,-66.75116 -0.41543,-88.79923 -1.32163,-90.25029 C 967.74366,581.15739 966.08983,581 919.02195,581 h -44.1758 l -2.92307,2.92308 L 869,586.84615 v 89.58671 c 0,88.60969 0.022,89.60569 2.01788,91.32693 1.10983,0.95711 3.24733,2.01708 4.75,2.35549 1.50267,0.3384 22.53212,0.5634 46.73212,0.5 37.0165,-0.097 44.35405,-0.34994 46.23069,-1.59377 z m -55.21125,-13.64492 c -2.40589,-2.40589 -1.48023,-4.65149 2.77405,-6.72972 2.69654,-1.31728 4.82528,-1.65957 7.36172,-1.18373 3.86211,0.72454 8.74375,4.83912 8.08579,6.81527 -0.69822,2.09704 -3.83594,1.9968 -5.87098,-0.18756 -2.50122,-2.68473 -3.47212,-2.63172 -7.45624,0.40711 -3.01838,2.30223 -3.40188,2.37108 -4.89434,0.87863 z m -10.38199,-10.09547 c -1.43058,-2.5563 2.27211,-7.1324 7.72154,-9.54294 9.18806,-4.06432 22.28862,-2.17039 28.89101,4.17672 2.63245,2.53067 2.71511,3.06676 0.86339,5.59914 -1.34132,1.83437 -1.50466,1.80627 -5.00039,-0.86006 -4.72306,-3.60244 -9.75603,-5.65634 -13.83088,-5.64421 -3.72937,0.0111 -12.59493,3.84121 -14.65456,6.33109 -1.74717,2.11214 -2.78335,2.09662 -3.99011,-0.0597 z m 40.45215,-12.67249 c -8.20983,-6.14069 -13.9844,-7.95852 -23.52655,-7.40614 -8.07804,0.46763 -15.75693,3.43833 -20.76217,8.03217 -2.39209,2.19548 -4.95814,1.82209 -5.99191,-0.87188 -0.82026,-2.13756 2.95806,-5.2439 11.69103,-9.61176 5.96562,-2.98374 7.28102,-3.25102 16,-3.25102 11.72024,0 16.13682,1.29037 23.84922,6.96792 7.23927,5.32924 8.79504,7.64864 6.21236,9.26155 -1.49072,0.93097 -2.76833,0.39735 -7.47198,-3.12084 z M 896,701 c -2.21207,-4.1333 2.84257,-8.36429 6.93745,-5.80699 2.28364,1.42616 2.7178,4.75174 0.86255,6.60699 -1.93309,1.93309 -6.59309,1.45514 -7.8,-0.8 z m 23.2,0.8 c -1.93381,-1.93381 -1.38816,-4.6306 1.29228,-6.3869 4.18504,-2.74214 7.39047,-0.0664 6.09651,5.08914 C 926.10826,702.41686 925.31264,703 923.18095,703 921.65143,703 919.86,702.46 919.2,701.8 Z m 21,0 c -3.09411,-3.09411 0.28421,-8.70263 4.31124,-7.15731 2.20776,0.84719 3.47502,4.43252 2.33541,6.60731 -1.05155,2.00673 -4.87365,2.323 -6.64665,0.55 z m 0.85771,-19.47213 c -1.49221,-1.04518 -2.07579,-2.3516 -1.8648,-4.17456 0.2513,-2.17124 0.8855,-2.70934 3.49065,-2.96171 3.81494,-0.36957 6.06088,2.54888 4.3794,5.69075 -1.44388,2.69793 -3.50787,3.19475 -6.00525,1.44552 z m -44.48628,-0.8993 C 894.51297,679.37011 894.58866,678.41134 897,676 c 3.41636,-3.41636 8,-1.73863 8,2.92819 0,4.11786 -5.25282,5.67613 -8.42857,2.50038 z m 22.39373,-0.99367 c -1.63244,-3.05025 -0.40486,-5.76411 2.82547,-6.24639 2.76465,-0.41276 6.36903,3.21072 5.50963,5.53881 -1.49899,4.0607 -6.32147,4.47009 -8.3351,0.70758 z m -22.40031,-17.36324 c -2.29176,-2.53237 -1.22043,-5.86902 2.15658,-6.71659 3.1955,-0.80202 5.67331,0.63957 6.10533,3.5521 0.70459,4.75005 -4.88833,6.89226 -8.26191,3.16449 z m 22.95336,0.30369 c -3.4401,-3.4401 -0.1271,-8.24696 4.82701,-7.00355 2.07689,0.52126 2.65478,1.27166 2.65478,3.44725 0,4.88101 -4.17336,6.86473 -7.48179,3.5563 z m 20.13678,-0.20409 c -2.06619,-2.28311 -2.08581,-3.59759 -0.0836,-5.59983 3.89121,-3.89121 9.41438,0.1226 7.12594,5.17857 -1.24357,2.74747 -4.74751,2.95707 -7.04238,0.42126 z M 888.19238,641.25 c -1.28318,-2.55761 -0.42676,-44.26267 0.94282,-45.91291 1.67938,-2.02353 60.64843,-1.94701 63.42367,0.0823 1.80785,1.32193 1.94819,2.84967 2.04399,22.25 0.0566,11.45683 -0.10472,21.84311 -0.35841,23.08061 l -0.46127,2.25 h -32.3564 c -29.81449,0 -32.42539,-0.13748 -33.2344,-1.75 z M 945.75,637.1095 949,637 948.9847,619.75 c -0.008,-9.4875 -0.37712,-17.82 -0.81932,-18.51667 -0.62333,-0.98202 -6.85609,-1.20675 -27.73469,-1 L 893.5,600.5 l -0.24121,13 c -0.13266,7.15 0.01,15.34262 0.31644,18.20582 l 0.55764,5.20583 6.68357,0.29417 c 5.91603,0.2604 36.2775,0.19531 44.93356,-0.0963 z M 619,634 v -84 h -7 -7 v 84 84 h 7 7 z m 17.4014,49.74996 c -0.0542,-18.83748 -0.16673,-56.65992 -0.25,-84.04986 L 636,549.90019 l -5.75,0.29991 -5.75,0.2999 -0.25571,83.75 -0.25571,83.75 6.25571,-4e-5 6.25571,-4e-5 z m 77.83282,-52.66764 3.26578,-2.91768 0.2842,-116.79849 c 0.31422,-129.14011 -0.17769,-119.75517 6.53944,-124.76162 2.75626,-2.05431 3.78234,-2.10641 43,-2.18336 22.097,-0.0434 40.73886,-0.15585 41.42636,-0.25 C 809.56051,384.06018 810,382.24204 810,379 v -5 h -50.04545 -50.04546 l -2.45454,2.45455 L 705,378.90909 v 116.09512 c 0,130.0419 0.56426,120.47451 -7.31632,124.05241 -3.7583,1.70633 -6.80182,1.90169 -29.93368,1.92142 L 642,621 v 6.5 6.5 h 34.48422 34.48423 z m -17.93769,-18.86995 2.67072,-2.78762 0.26637,-116.46238 c 0.29351,-128.32407 -0.20798,-118.91165 6.56023,-123.12783 3.19926,-1.99293 4.73576,-2.05592 53.5,-2.1932 L 809.5,367.5 l 0.29569,-6.75 0.29569,-6.75 h -59.62261 -59.62262 l -2.92307,2.92308 -2.92308,2.92307 -0.002,114.82693 c -0.001,107.3442 -0.1155,115.05037 -1.75,118.25584 -3.52678,6.91643 -5.41046,7.52999 -24.32075,7.92191 L 642,601.20166 V 608.10083 615 h 25.81291 25.81291 z M 654.1504,542.91951 C 658.62307,540.52581 659,537.23447 659,500.57259 v -34.49165 l -2.73934,-2.54006 c -1.50663,-1.39703 -4.09413,-2.79064 -5.75,-3.09691 -1.65586,-0.30628 -14.8137,-0.41896 -29.23963,-0.25042 l -26.22898,0.30645 -2.53399,2.53569 -2.534,2.5357 -0.11021,35.54987 c -0.11407,36.79093 0.0553,38.53026 4.04949,41.59694 2.10777,1.61829 57.24509,1.80256 60.23706,0.20131 z M 619.28766,521.5886 c -1.692,-1.42373 -3.95417,-2.5886 -5.02703,-2.5886 -2.244,0 -4.71615,-2.48959 -5.70974,-5.75 -0.47234,-1.54997 -1.46296,-2.25 -3.18402,-2.25 -1.37409,0 -3.36877,-0.46583 -4.43261,-1.03518 C 599.1351,509.00194 599,507.70803 599,491.44007 V 473.9505 l 2.5651,-0.97525 c 2.78734,-1.05974 40.04744,-1.14138 44.9349,-0.0985 l 3,0.64016 0.29482,13.49152 c 0.36636,16.76564 -0.76233,21.83502 -5.05258,22.69307 -2.12519,0.42504 -3.35156,1.51252 -4.32028,3.83098 -0.93352,2.23424 -3.08175,4.21328 -6.93248,6.3865 -7.99151,4.51013 -10.47853,4.8025 -14.20182,1.66957 z m 15.8938,-12.23213 c 0.85014,-2.33745 2.12738,-3.46831 4.98093,-4.41006 L 644,503.67988 V 491.33994 479 l -6.25,-0.11675 c -3.4375,-0.0642 -10.75,-0.22569 -16.25,-0.35884 -5.5,-0.13314 -11.4625,-0.0305 -13.25,0.22804 L 605,479.22258 V 492.11129 505 h 2.67126 c 2.87347,0 6.32874,2.50607 6.32874,4.59018 0,0.70412 2.34905,2.85465 5.22011,4.77897 l 5.2201,3.49876 4.79897,-2.68395 c 3.26515,-1.82613 5.16438,-3.68868 5.94228,-5.82749 z M 832,492 c 0,-11.55 -0.1125,-21.01663 -0.25,-21.03696 -0.1375,-0.0203 -3.7375,-0.30467 -8,-0.63188 L 816,469.73623 V 491.36812 513 h 8 8 z m 56.73325,2.36136 c 4.35701,-3.23484 5.23598,-6.01102 5.25201,-16.58831 0.0161,-10.63709 -0.54451,-11.66871 -7.23526,-13.31374 l -2.75,-0.67613 -0.004,8.85841 c -0.003,7.04756 -0.40628,9.51861 -1.97291,12.08804 l -1.96918,3.22963 -20.77708,0.27037 L 838.5,488.5 l -0.30816,3.71309 -0.30817,3.71308 9.80817,0.28692 c 5.39449,0.1578 16.21312,0.2679 24.04141,0.24467 12.75514,-0.0379 14.52057,-0.25556 17,-2.0964 z M 877.4433,479.77749 c 2.15208,-3.07253 2.11108,-15.80695 -0.0657,-20.3941 -1.13258,-2.38674 -1.48196,-5.1119 -1.15729,-9.02694 l 0.46506,-5.60807 -4.0927,-1.86269 c -5.48021,-2.49418 -8.04175,-4.7198 -10.06861,-8.74821 -2.18733,-4.34732 -3.02654,-12.65826 -1.74636,-17.29468 0.97237,-3.52163 0.88176,-3.7278 -2.63538,-5.9966 -4.49721,-2.90101 -5.07152,-6.3794 -2.27042,-13.75129 3.15951,-8.31515 7.7983,-13.68972 14.87742,-17.23718 5.63039,-2.82148 6.86846,-3.0741 12.5,-2.55062 3.43785,0.31957 7.26854,0.8851 8.51264,1.25673 l 2.26199,0.6757 -0.26199,-38.34751 -0.262,-38.3475 -7,-3.83417 c -16.94463,-9.28124 -60.47124,-32.69678 -65.25,-35.10183 L 816,260.96631 v 101.98301 101.98302 l 10.75,0.28383 10.75,0.28383 0.29044,8.25 0.29044,8.25 h 18.90286 c 18.40005,0 18.94426,-0.0591 20.45956,-2.22251 z m 92.70438,-9.74161 c 6.17801,-2.34745 11.98404,-8.19546 14.38917,-14.49319 1.69415,-4.43607 1.66582,-12.80341 -0.0619,-18.29269 -0.89366,-2.8393 0.81463,-2.96045 3.52508,-0.25 2.54272,2.54272 3.89432,2.48209 7,-0.31397 5.55697,-5.00295 5.60487,-5.43316 0.84495,-7.57321 -12.75082,-5.73263 -15.35825,-6.47422 -22.5149,-6.40354 -8.93954,0.0883 -16.21116,3.16286 -22.1856,9.38047 -8.13029,8.46122 -10.96872,18.74896 -7.63655,27.6783 2.24814,6.02444 4.02565,8.07062 8.9921,10.35122 5.20074,2.38819 11.21785,2.35976 17.64768,-0.0834 z M 956.5,462.11455 c -7.41009,-3.41148 -9.55179,-11.62931 -5.25,-20.14459 4.0917,-8.09941 13.28667,-11.82669 20.49143,-8.30641 4.7235,2.30792 7.25495,7.17009 7.25702,13.93857 0.002,6.49399 -2.90959,11.08706 -8.96841,14.14788 -5.37309,2.7144 -8.25712,2.79211 -13.53004,0.36455 z m 11.48896,-4.60884 C 972.13886,455.35971 974,452.17877 974,447.23204 974,441.33301 970.73107,438 964.94545,438 959.56129,438 954,443.05533 954,447.94966 c 0,8.54403 6.87032,13.23724 13.98896,9.55605 z m -6.54783,-6.94714 c -1.55422,-1.15413 -1.72009,-1.80192 -0.83214,-3.25 1.46017,-2.3813 5.75192,-2.38858 6.20989,-0.0105 0.33835,1.75689 -1.38424,4.70196 -2.7502,4.70196 -0.37753,0 -1.55993,-0.64864 -2.62755,-1.44143 z M 937.53756,460.75 c -0.38263,-1.2375 -0.94062,-5.69756 -1.23997,-9.91125 l -0.54429,-7.66125 -4.62665,-1.7415 C 926.71409,439.77509 896.81032,427.28987 890.5,424.47383 882.41821,420.86726 868.00192,415 867.22211,415 c -1.47739,0 -1.40854,10.62073 0.0918,14.16715 0.77551,1.83307 2.29647,4.12163 3.37991,5.08569 1.08344,0.96405 12.50804,6.20131 25.38801,11.63833 12.87997,5.43703 27.01813,11.47948 31.41813,13.42768 9.68692,4.28909 10.97816,4.4732 10.03756,1.43115 z m -35.10266,-0.72525 c 4.70499,-1.78883 2.84252,-3.57925 -8.1849,-7.86821 -5.9125,-2.29959 -11.0875,-4.17555 -11.5,-4.1688 -1.23615,0.0202 -0.78446,5.3832 0.6077,7.21528 1.55231,2.04285 10.07189,5.5516 13.8272,5.69468 1.4767,0.0563 3.8392,-0.33656 5.25,-0.87295 z m 37.9952,-24.80451 c 1.18712,-3.74029 10.13324,-11.41604 17.35242,-14.88832 4.04158,-1.94392 7.09145,-3.79128 6.77749,-4.10524 -0.65438,-0.65438 -12.64694,-5.72336 -33.56001,-14.18504 -7.975,-3.22678 -19.9,-8.18934 -26.5,-11.02793 -21.25794,-9.14278 -27.04648,-9.51761 -35.48146,-2.29758 -3.9286,3.36273 -9.01854,11.63585 -9.01854,14.6586 0,1.38987 9.68052,5.76636 42.5,19.21393 7.15,2.92967 17.725,7.33301 23.5,9.78521 11.82503,5.02118 13.62703,5.37663 14.4301,2.84637 z"
       id="path2"
       sodipodi:nodetypes="ssscccsssssscccccccsssssssscsscccccccssscccsccccsssscscssscsscssscssscssssccccscsscccsssssscsscsssssssccccsssccssscssscsccccsssccccccsssccsscsscccssscccssscsscssssccssssscssscsscccsscsssssscssssssssscsscssscssscsssccsscsssscssssscsssscssssscsccscsssscccsssscssscccccccccssssscccsscsssccccccccsscccccsssccsssssssssssssssscccsssccccsssccssssssssssssssssssssccccsssccsssssssssssssssssssssscccccccccssssssscssssscccsccsscssssssssssssssssssssssssssssscsssssssssssssssssssssssssssssccssscccsssccccccccccccsssccsscccccssccccccccccssccccccscccssssscccccssscccccccccsscccccssscssssscccccscscssssccsscccccssssscssscccccccccssssssssssssssssssssssssssssssssssssssssssssssssssssssssssssssssscsssssscssscccssssssscccccsssssssssssssssssssssssssssscssssssssssssssssssssssssssssssssssssssssssssssssccccsscsssssscccccccccccccsscssscccsscccccccccccccssssscccccccccsscccccccsscsscssscsssccccccccccccccccccccsscccccsccccccccccccccccccssssscccsssssssssssssssssssssssssssssssssssssssssssssssssssssssssssssssssssssssssscsscccsscsccssccccccccccsscccccccsccssssscccccsssccccccccsssccccccccssccccccsscssscccssssssssscsscsssssssscccssscccssscssssscccccssssccscccccsssssscsssssssscccsscccccccssssssssssssssssssssssssssssssssscsssssssssssssssssssssssss" />
  </g>
</svg>
